<svg width="98" height="77" viewBox="0 0 98 77" fill="none" xmlns="http://www.w3.org/2000/svg">
<g clip-path="url(#clip0_64_753)">
<path d="M67.75 10.9333C70.3388 10.9333 72.4375 8.83467 72.4375 6.24583C72.4375 3.657 70.3388 1.55833 67.75 1.55833C65.1612 1.55833 63.0625 3.657 63.0625 6.24583C63.0625 8.83467 65.1612 10.9333 67.75 10.9333Z" stroke="#FFBF7F" stroke-width="2.5" stroke-linecap="round" stroke-linejoin="round"/>
<path d="M67.75 37.4958C70.3388 37.4958 72.4375 35.3972 72.4375 32.8083C72.4375 30.2195 70.3388 28.1208 67.75 28.1208C65.1612 28.1208 63.0625 30.2195 63.0625 32.8083C63.0625 35.3972 65.1612 37.4958 67.75 37.4958Z" stroke="white" stroke-width="2.5" stroke-linecap="round" stroke-linejoin="round"/>
<path d="M52.125 48.4333C54.7138 48.4333 56.8125 46.3347 56.8125 43.7458C56.8125 41.157 54.7138 39.0583 52.125 39.0583C49.5362 39.0583 47.4375 41.157 47.4375 43.7458C47.4375 46.3347 49.5362 48.4333 52.125 48.4333Z" stroke="#FFBF7F" stroke-width="2.5" stroke-linecap="round" stroke-linejoin="round"/>
<path d="M30.25 48.4333C32.8388 48.4333 34.9375 46.3347 34.9375 43.7458C34.9375 41.157 32.8388 39.0583 30.25 39.0583C27.6612 39.0583 25.5625 41.157 25.5625 43.7458C25.5625 46.3347 27.6612 48.4333 30.25 48.4333Z" stroke="white" stroke-width="2.5" stroke-linecap="round" stroke-linejoin="round"/>
<path d="M31.8125 15.6208C34.4013 15.6208 36.5 13.5222 36.5 10.9333C36.5 8.3445 34.4013 6.24583 31.8125 6.24583C29.2237 6.24583 27.125 8.3445 27.125 10.9333C27.125 13.5222 29.2237 15.6208 31.8125 15.6208Z" stroke="white" stroke-width="2.5" stroke-linecap="round" stroke-linejoin="round"/>
<path d="M57.6479 16.35L64.4396 9.55833" stroke="#FFBF7F" stroke-width="2.5" stroke-linecap="round" stroke-linejoin="round"/>
<path d="M58.9875 25.6083L63.7479 30.3688" stroke="white" stroke-width="2.5" stroke-linecap="round" stroke-linejoin="round"/>
<path d="M52.125 29.6833V39.0583" stroke="#FFBF7F" stroke-width="2.5" stroke-linecap="round" stroke-linejoin="round"/>
<path d="M46.6062 27.3896L33.5625 40.4333" stroke="white" stroke-width="2.5" stroke-linecap="round" stroke-linejoin="round"/>
<path d="M44.8354 19.0604L35.6875 13.5708" stroke="white" stroke-width="2.5" stroke-linecap="round" stroke-linejoin="round"/>
<path d="M52.125 29.6833C56.4397 29.6833 59.9375 26.1856 59.9375 21.8708C59.9375 17.5561 56.4397 14.0583 52.125 14.0583C47.8103 14.0583 44.3125 17.5561 44.3125 21.8708C44.3125 26.1856 47.8103 29.6833 52.125 29.6833Z" stroke="white" stroke-width="2.5" stroke-linecap="round" stroke-linejoin="round"/>
</g>
<path d="M1.38161 65.996H2.26961V74H1.38161V65.996ZM5.22273 74H4.33473V65.66L10.5747 72.2V65.996H11.4627V74.36L5.22273 67.82V74ZM14.4102 74H13.5222V65.66L19.7622 72.2V65.996H20.6502V74.36L14.4102 67.82V74ZM26.4417 74.144C24.1257 74.144 22.2777 72.38 22.2777 70.004C22.2777 67.616 24.1377 65.864 26.4417 65.864C28.7457 65.864 30.6057 67.616 30.6057 70.004C30.6057 72.38 28.7577 74.144 26.4417 74.144ZM26.4417 66.704C24.6417 66.704 23.1897 68.168 23.1897 70.004C23.1897 71.84 24.6417 73.304 26.4417 73.304C28.2417 73.304 29.6937 71.84 29.6937 70.004C29.6937 68.168 28.2417 66.704 26.4417 66.704ZM30.9144 65.996H31.8984L34.1544 72.104L36.4104 65.996H37.3944L34.1544 74.48L30.9144 65.996ZM43.2492 74L42.3132 71.744H38.9052L37.9452 74H36.9612L40.6452 65.612L44.2332 74H43.2492ZM39.2532 70.904H41.9652L40.6212 67.7L39.2532 70.904ZM48.735 66.836H46.791V74H45.903V66.836H43.959V65.996H48.735V66.836ZM49.9324 65.996H50.8204V74H49.9324V65.996ZM56.6175 74.144C54.3015 74.144 52.4535 72.38 52.4535 70.004C52.4535 67.616 54.3135 65.864 56.6175 65.864C58.9215 65.864 60.7815 67.616 60.7815 70.004C60.7815 72.38 58.9335 74.144 56.6175 74.144ZM56.6175 66.704C54.8175 66.704 53.3655 68.168 53.3655 70.004C53.3655 71.84 54.8175 73.304 56.6175 73.304C58.4175 73.304 59.8695 71.84 59.8695 70.004C59.8695 68.168 58.4175 66.704 56.6175 66.704ZM63.3009 74H62.4129V65.66L68.6529 72.2V65.996H69.5409V74.36L63.3009 67.82V74Z" fill="white"/>
<path d="M76.0931 65.996V69.044H79.2851V65.996H81.1331V74H79.2851V70.604H76.0931V74H74.2451V65.996H76.0931ZM89.6499 65.996V70.736C89.6499 71.504 89.5539 72.452 88.7619 73.268C87.9939 74.06 87.1059 74.18 86.2659 74.18C85.4259 74.18 84.5379 74.06 83.7699 73.268C82.9779 72.452 82.8819 71.504 82.8819 70.736V65.996H84.7299V70.688C84.7299 71.036 84.7539 71.624 85.1499 72.032C85.4739 72.38 85.9179 72.452 86.2659 72.452C86.6139 72.452 87.0579 72.38 87.3819 72.032C87.7779 71.624 87.8019 71.036 87.8019 70.688V65.996H89.6499ZM91.4014 65.996H93.8494C94.2814 65.996 95.2654 66.02 95.8894 66.608C96.4054 67.1 96.4654 67.772 96.4654 68.12C96.4654 68.432 96.4174 68.792 96.2014 69.14C95.9974 69.476 95.7214 69.644 95.5294 69.728C95.9134 69.788 96.3454 69.98 96.6334 70.268C96.8974 70.532 97.1494 70.988 97.1494 71.696C97.1494 72.5 96.8374 73.004 96.5254 73.316C95.8654 73.952 94.9054 74 94.4134 74H91.4014V65.996ZM93.2254 67.436V69.248H93.5254C93.7774 69.248 94.1974 69.212 94.4614 69.02C94.6294 68.9 94.7854 68.66 94.7854 68.312C94.7854 67.964 94.6174 67.748 94.4734 67.64C94.2094 67.436 93.8494 67.436 93.5134 67.436H93.2254ZM93.2254 70.616V72.56H93.6694C94.1374 72.56 94.7014 72.548 95.0374 72.236C95.2054 72.08 95.3014 71.852 95.3014 71.564C95.3014 71.24 95.1694 71.024 95.0494 70.916C94.7254 70.616 94.1014 70.616 93.7294 70.616H93.2254Z" fill="#FFBF7F"/>
<defs>
<clipPath id="clip0_64_753">
<rect width="50" height="50" fill="white" transform="translate(24)"/>
</clipPath>
</defs>
</svg>
