<svg width="883" height="860" viewBox="0 0 883 860" fill="none" xmlns="http://www.w3.org/2000/svg">
<rect x="82" y="43" width="715" height="763" fill="#4787BC"/>
<path d="M125.468 579.823L125.468 588.386L132.592 593.136L432.592 793.136L441.467 799.053L450.343 793.136L750.343 593.136L757.468 588.386L757.468 579.823L757.468 279.823L757.468 271.26L750.343 266.51L450.343 66.5104L441.467 60.5937L432.592 66.5104L132.592 266.51L125.468 271.26L125.468 279.823L125.468 579.823Z" fill="#4787BC" stroke="white" stroke-width="32"/>
<path d="M744 583L673.673 539.867L551 464" stroke="white" stroke-width="32"/>
<path d="M441.468 79.8232L438 374" stroke="white" stroke-width="32"/>
<path d="M139 583L209.327 542.042L332 470" stroke="white" stroke-width="32"/>
<path d="M335.139 362.869H323.074V397.358H274.813V362.869H262.516V444.361H274.813V407.704H323.074V444.361H335.139V362.869ZM311.008 354C318.82 354 325.897 354.985 332.238 356.956C338.58 358.927 343.956 361.62 348.364 365.036C352.85 368.453 356.291 372.46 358.689 377.058C361.087 381.591 362.285 386.42 362.285 391.544V451.456C362.285 456.58 361.087 461.442 358.689 466.04C356.291 470.573 352.85 474.547 348.364 477.964C343.956 481.38 338.58 484.073 332.238 486.044C325.897 488.015 318.82 489 311.008 489H275.277C267.466 489 260.389 488.015 254.047 486.044C247.705 484.073 242.291 481.38 237.805 477.964C233.397 474.547 229.994 470.573 227.596 466.04C225.199 461.442 224 456.58 224 451.456V391.544C224 386.42 225.199 381.591 227.596 377.058C229.994 372.46 233.397 368.453 237.805 365.036C242.291 361.62 247.705 358.927 254.047 356.956C260.389 354.985 267.466 354 275.277 354H311.008Z" fill="white"/>
<path d="M448.366 354C456.177 354 463.254 354.985 469.596 356.956C475.938 358.927 481.313 361.62 485.721 365.036C490.207 368.453 493.649 372.46 496.046 377.058C498.444 381.591 499.643 386.42 499.643 391.544V451.456C499.643 456.58 498.444 461.442 496.046 466.04C493.649 470.573 490.207 474.547 485.721 477.964C481.313 481.38 475.938 484.073 469.596 486.044C463.254 488.015 456.177 489 448.366 489H412.634C404.823 489 397.746 488.015 391.404 486.044C385.062 484.073 379.648 481.38 375.163 477.964C370.754 474.547 367.351 470.573 364.954 466.04C362.556 461.442 361.357 456.58 361.357 451.456V391.544C361.357 386.42 362.556 381.591 364.954 377.058C367.351 372.46 370.754 368.453 375.163 365.036C379.648 361.62 385.062 358.927 391.404 356.956C397.746 354.985 404.823 354 412.634 354H448.366ZM471.568 362.869H459.271V427.412C459.116 428.266 458.845 429.186 458.459 430.172C458.149 431.157 457.84 432.077 457.531 432.931L449.99 433.916H420.291L412.634 432.931L411.01 427.018V362.869H398.945V428.496L400.337 436.971L407.878 443.179L419.595 444.361H450.686L462.519 443.179L469.944 436.971L471.568 428.496V362.869Z" fill="white"/>
<path d="M585.723 354C593.534 354 600.611 354.985 606.953 356.956C613.295 358.927 618.67 361.62 623.079 365.036C627.564 368.453 631.006 372.46 633.404 377.058C635.801 381.591 637 386.42 637 391.544V451.456C637 456.58 635.801 461.442 633.404 466.04C631.006 470.573 627.564 474.547 623.079 477.964C618.67 481.38 613.295 484.073 606.953 486.044C600.611 488.015 593.534 489 585.723 489H549.992C542.18 489 535.103 488.015 528.762 486.044C522.42 484.073 517.006 481.38 512.52 477.964C508.112 474.547 504.709 470.573 502.311 466.04C499.913 461.442 498.715 456.58 498.715 451.456V391.544C498.715 386.42 499.913 381.591 502.311 377.058C504.709 372.46 508.112 368.453 512.52 365.036C517.006 361.62 522.42 358.927 528.762 356.956C535.103 354.985 542.18 354 549.992 354H585.723ZM604.401 413.124L602.197 405.832L592.916 402.383L602.197 399.427L604.401 391.938V378.832L602.777 370.555L595.468 364.248L583.519 362.869H534.794V444.361H583.519L595.468 443.179L602.777 436.971L604.401 428.693V413.124ZM590.48 432.931L582.823 433.916H547.207V407.901H583.055L590.944 408.69L592.104 414.504V427.609L590.48 432.931ZM590.48 396.372L582.823 397.555H547.207V373.314H582.823L590.944 374.398L590.48 380.212L592.104 391.15L590.48 396.372Z" fill="white"/>
</svg>
