<?xml version="1.0" encoding="utf-8"?>
<svg id="svg2" viewBox="0 0 500 670" xmlns="http://www.w3.org/2000/svg" xmlns:bx="https://boxy-svg.com">
  <desc>Source: openclipart.org/detail/209545</desc>
  <defs>
    <linearGradient id="color-0" bx:pinned="true" gradientUnits="userSpaceOnUse">
      <stop style="stop-color: #d8d8d8;"/>
    </linearGradient>
    <bx:export>
      <bx:file format="svg" href="#object-0"/>
      <bx:file format="svg" href="#object-1" path="Untitled 2.svg" excluded="true"/>
      <bx:file format="svg" href="#object-2" path="Untitled 3.svg" excluded="true"/>
    </bx:export>
  </defs>
  <rect x="1.386" y="176.025" width="497.822" height="307.039" style="" id="object-0"/>
  <path d="M 317.278 409.125 L 316.884 408.952 C 315.037 408.104 303.611 402.945 291.498 397.477 C 273.419 389.327 249.661 378.424 233.455 370.835 L 231.821 370.067 L 231.821 260.553 L 233.56 261.103 C 236.117 261.906 240.445 263.281 243.176 264.164 L 246.589 265.253 L 246.827 290.932 C 246.965 305.961 247.079 326.103 247.079 335.699 L 247.079 353.147 C 247.079 354.064 247.615 354.9 248.444 355.255 L 317.547 385.371 L 317.424 398.073 C 317.379 402.509 317.322 406.499 317.278 409.125 Z M 407.136 259.223 C 407.225 264.943 407.439 281.646 407.439 313.802 L 407.439 369.918 L 406.201 370.491 C 404.794 371.133 397.049 374.755 388.988 378.527 C 380.95 382.288 364.188 390.071 351.759 395.826 C 339.32 401.581 327.128 407.221 324.663 408.367 C 324.144 408.608 323.615 408.849 323.108 409.078 C 323.063 406.373 323.018 402.245 323.018 398.108 L 323.018 385.107 L 323.954 384.637 C 326.846 383.193 384.204 356.253 385.307 355.829 L 386.174 355.496 C 387.04 355.152 387.626 354.304 387.626 353.353 L 387.626 265.334 C 388.932 264.943 393.874 263.396 399.154 261.722 C 402.283 260.725 405.165 259.819 407.136 259.223 Z M 263.166 270.893 C 267.161 272.062 306.763 284.18 314.981 286.759 L 317.559 287.562 L 317.502 304.597 C 317.469 314.902 317.424 334.094 317.413 347.243 C 317.401 357.903 317.289 364.403 317.221 367.556 C 312.471 365.527 302.158 361.171 290.439 356.253 C 277.586 350.865 266.582 346.187 262.95 344.583 C 262.873 339.963 262.846 324.682 262.892 306.763 C 262.946 285.658 263.001 275.708 263.151 271.272 L 263.166 270.893 Z M 371.82 270.515 C 371.922 275.066 372.102 286.415 372.102 307.004 L 372.102 345.11 L 369.535 346.291 C 365.877 347.965 345.512 357.147 327.703 365.126 C 325.98 365.906 324.246 366.663 322.872 367.247 C 322.872 360.735 322.895 345.614 322.929 328.132 L 323.03 287.355 L 340.4 281.383 C 350.803 277.806 362.646 273.702 366.732 272.257 C 368.511 271.627 370.391 270.996 371.82 270.515 Z M 319.686 253.926 C 320.407 254.098 323.84 254.901 326.88 255.726 C 348.427 261.607 360.282 264.84 366.45 266.537 C 363.929 267.42 360.462 268.623 355.868 270.16 L 328.805 279.25 L 320.16 282.151 L 308.485 278.642 C 301.697 276.602 288.875 272.739 279.992 270.056 C 276.131 268.899 272.463 267.798 269.476 266.915 C 274.879 265.471 283.775 263.121 297.385 259.613 C 308.677 256.701 318.279 254.237 319.686 253.926 Z M 319.675 236.938 C 322.636 237.614 334.648 240.457 359.977 246.441 C 376.278 250.304 393.48 254.328 398.186 255.394 L 399.862 255.783 C 397.814 256.449 395.27 257.251 392.252 258.191 L 385.385 260.311 L 369.715 256.219 C 360.765 253.892 345.985 250.029 336.877 247.644 L 320.328 243.323 C 319.97 243.228 319.596 243.224 319.236 243.312 L 288.875 250.694 C 272.152 254.763 256.335 258.638 253.72 259.303 L 249.585 260.369 L 240.202 257.389 C 239.314 257.103 238.472 256.827 237.687 256.564 C 245.952 254.557 262.747 250.568 292.398 243.529 C 305.874 240.33 317.209 237.603 319.405 237.018 C 319.495 236.994 319.597 236.96 319.675 236.938 Z" style="fill: rgb(250, 250, 250);" id="object-1"/>
  <text style="fill: rgb(250, 250, 250); font-family: Arial, sans-serif; font-size: 28px; white-space: pre;" transform="matrix(2.065174, 0, 0, 2.07633, -302.52301, -302.050415)" x="178.229" y="307.927" id="object-2">Fred</text>
</svg>